<?xml version='1.0' encoding='utf-8'?>
<svg xmlns:xlink="http://www.w3.org/1999/xlink" xmlns="http://www.w3.org/2000/svg" version="1.0" viewBox="0 0 788.34084 437.05371" id="svg90" width="788.34082" height="437.05371"> <title id="title5160">hameçonnage</title> <defs id="defs56"> <linearGradient id="linearGradient1077"> <stop style="stop-color:#00bfff;stop-opacity:1;" offset="0" id="stop1073"/> </linearGradient> <linearGradient id="n"> <stop stop-color="#676767" offset="0" id="stop2"/> <stop stop-color="#fff" offset=".02" id="stop4"/> <stop stop-color="#dfdfe1" offset=".04" id="stop6"/> <stop stop-color="#efeff0" offset=".96" id="stop8"/> <stop stop-color="#fff" offset=".98" id="stop10"/> <stop stop-color="#676767" offset="1" id="stop12"/> </linearGradient> <linearGradient id="m"> <stop stop-color="#fff" offset="0" id="stop15"/> <stop stop-opacity="0" offset="1" id="stop17"/> </linearGradient> <linearGradient id="o" x1="525.28003" x2="656.59998" y1="97.767998" y2="423.04001" gradientTransform="matrix(1.0092,0,0,1.0058,-9.9652,2.1515)" gradientUnits="userSpaceOnUse" xlink:href="#m"/> <radialGradient id="x" cx="368.78" cy="101.43" r="3.4688001" gradientTransform="matrix(1,0,0,0.95,0,5.0362)" gradientUnits="userSpaceOnUse" xlink:href="#m"/> <linearGradient id="p" x1="19.122999" x2="724.58002" y1="438.17001" y2="438.17001" gradientTransform="matrix(1.0028,0,0,0.9632,-1.0442,36.361)" gradientUnits="userSpaceOnUse" xlink:href="#n"/> <linearGradient id="q" x1="130.31" x2="611.14001" y1="267.47" y2="267.47" gradientTransform="matrix(1,0,0,0.99361,0,0.72801)" gradientUnits="userSpaceOnUse" xlink:href="#u"> <stop stop-color="#9c5da6" offset="0" id="stop23"/> <stop stop-color="#5b325b" offset="1" id="stop25"/> </linearGradient> <linearGradient id="r" x1="359.07999" x2="359.07999" y1="465.67001" y2="472.51999" gradientTransform="matrix(0.99992,0,0,1.0177,1.2423,-21.78)" gradientUnits="userSpaceOnUse"> <stop stop-color="#e5e6e8" offset="0" id="stop28"/> <stop stop-color="#4c5252" offset="1" id="stop30"/> </linearGradient> <linearGradient id="s" x1="18.142" x2="725.56" y1="459.79999" y2="459.79999" gradientTransform="matrix(1.0001,0,0,0.88472,-0.03056,51.617)" gradientUnits="userSpaceOnUse" xlink:href="#n"/> <linearGradient id="t" x1="700.01001" x2="695.5" y1="484.17001" y2="478.26999" gradientTransform="matrix(1.0083,0,0,1,-3.098,-2.7751)" gradientUnits="userSpaceOnUse"> <stop offset="0" id="stop34"/> <stop stop-color="#fbfcff" stop-opacity="0" offset="1" id="stop36"/> </linearGradient> <linearGradient id="u" x1="329.66" x2="329.66" y1="473.48999" y2="485.26999" gradientTransform="matrix(1.0127,0,0,1,-6.2255,-2.7751)" gradientUnits="userSpaceOnUse"> <stop stop-color="#8f9091" offset="0" id="stop39"/> <stop stop-color="#323b3b" offset="1" id="stop41"/> </linearGradient> <linearGradient id="v" x1="334.45001" x2="334.45001" y1="470.29999" y2="485.04001" gradientTransform="matrix(1.0083,0,0,0.95399,-3.098,19.287)" gradientUnits="userSpaceOnUse"> <stop stop-color="#d3d5d7" offset="0" id="stop44"/> <stop stop-color="#86898a" offset=".5" id="stop46"/> <stop stop-color="#171b1b" offset="1" id="stop48"/> </linearGradient> <linearGradient id="w" x1="38.150002" x2="43.948002" y1="479.5" y2="473.95001" gradientTransform="matrix(1.0578,0,0,1.0104,-4.9081,-7.6835)" gradientUnits="userSpaceOnUse"> <stop stop-opacity=".30348" offset="0" id="stop51"/> <stop stop-color="#fbfcff" stop-opacity="0" offset="1" id="stop53"/> </linearGradient> <linearGradient xlink:href="#linearGradient1077" id="linearGradient1079" x1="130.31" y1="266.48999" x2="703.12439" y2="267.15176" gradientUnits="userSpaceOnUse"/> <pattern id="EMFhbasepattern" patternUnits="userSpaceOnUse" width="6" height="6" x="0" y="0"/> <linearGradient xlink:href="#u" id="linearGradient4168" gradientUnits="userSpaceOnUse" gradientTransform="matrix(1.0127,0,0,1,-6.2255,-2.7751)" x1="329.66" y1="473.48999" x2="329.66" y2="485.26999"/> </defs> <path style="fill:#696969;fill-opacity:0.453008;stroke:none;stroke-width:1px;stroke-linecap:butt;stroke-linejoin:miter;stroke-opacity:1" d="M 621.07605,0 788.3408,177.09608 788.03342,437.05371 52.910308,436.83883 0,381.69401 l 563.89426,-5.6866 z" id="path2252"/> <g id="g1049" transform="translate(-0.451951,-53.49406)"> <g transform="translate(-18.142049,-34.771939)" id="g88"> <path d="m 50.343,458.94 h 642.03 c 10.97,0 19.8,4.6 19.8,10.31 l 2.11,5.71 c -7.73,4.32 -10.94,7.53 -21.91,7.53 H 50.343 c -10.968,0 -22.769,-7.05 -25.49,-11.28 l 7.667,-1.23 c 0,-5.7 6.855,-11.04 17.826,-11.04 z" fill="url(#u)" id="path58" style="fill:url(#linearGradient4168)"/> <path d="m 35.312,447.96 c -7.029,0 -13.166,2.66 -16.656,6.67 v 13.87 c 0,0.49 -0.03,0.97 -0.062,1.46 3.479,4.05 9.647,6.76 16.718,6.76 h 672.1 c 7.65,0 14.22,-3.18 17.5,-7.81 -0.22,-1.12 -0.35,-2.27 -0.35,-3.45 v -10.23 c -3.38,-4.35 -9.78,-7.27 -17.15,-7.27 z" fill="url(#v)" id="path60" style="fill:url(#v)"/> <path d="m 699.43,482.26 9.62,-4.86 c 10.84,-2.08 15.56,-8.32 15.56,-8.32 l -30.78,-0.18 -15.21,13.19 z" fill="url(#t)" fill-rule="evenodd" opacity="0.28358" id="path62" style="fill:url(#t)"/> <rect x="101.03" y="84.649002" width="542.42999" height="384.84" rx="19.999001" ry="21.165001" fill="#d0d0d2" stroke="#b3b7b7" stroke-linecap="round" stroke-linejoin="bevel" stroke-width="2" id="rect64"/> <rect x="103.91" y="88.265999" width="535.76001" height="376.78" rx="17" ry="17" stroke="#000000" stroke-linecap="round" stroke-linejoin="bevel" stroke-width="1.0088" id="rect66"/> <rect x="130.31" y="113.93" width="480.82999" height="305.12" fill="url(#q)" opacity="0.87065" id="rect68" style="fill:url(#linearGradient1079);fill-opacity:1"/> <path d="m 533.41,88.935 -198.8,364.08 303.8,1.02 c 0,0 0.98,-330.92 0.57,-345.69 C 638.55,92.876 632.01,89.321 618.5,89.151 604.3,88.972 533.41,88.93 533.41,88.93 Z" fill="url(#o)" fill-rule="evenodd" opacity="0.26368" id="path70" style="fill:url(#o)"/> <path transform="matrix(1.2563,0,0,1.2563,-94.56,-25.955)" d="m 372.25,100.72 a 3.47,3.29654 0 1 1 -6.94,0 3.47,3.29654 0 1 1 6.94,0 z" fill="url(#x)" opacity="0.16418" id="path72" style="fill:url(#x)"/> <rect x="18.601999" y="447.98001" width="706.5" height="20.851999" fill="url(#p)" stroke="url(#s)" stroke-linecap="round" stroke-linejoin="bevel" stroke-width="0.9199" id="rect74" style="fill:url(#p);stroke:url(#s)"/> <path d="m 18.57,469.25 15.782,0.35 16.658,4.21 13.576,6.66 -22.162,0.7 -11.741,-4.56 c -9.907,-2.8 -12.113,-7.36 -12.113,-7.36 z" fill="url(#w)" fill-rule="evenodd" opacity="0.77612" id="path76" style="fill:url(#w)"/> <path d="m 315.17,447.12 v 1.81 c 0,5.64 4.46,10.18 10,10.18 h 86.93 c 5.54,0 10,-4.54 10,-10.18 v -1.81 z" fill="url(#r)" opacity="0.87065" stroke="#707575" stroke-linecap="round" stroke-linejoin="bevel" stroke-opacity="0.51256" stroke-width="0.94421" id="path78" style="fill:url(#r)"/> <rect x="657.10999" y="457.29999" width="25.754999" height="2.6981001" opacity="0.86567" stroke="#999c9c" stroke-linecap="round" stroke-linejoin="bevel" id="rect80"/> <rect x="103.41" y="446.67001" width="536.71002" height="0.83490002" fill="#595c5c" id="rect82"/> </g> <g id="g2408" transform="matrix(0.19769688,0,0,0.2242646,284.35914,48.646546)"> <rect x="-91.572067" y="702.11853" class="st0" width="898.20001" height="513.70001" id="rect4" style="fill:#c0c0c0"/> <g id="g22" transform="translate(-263.17208,-885.18151)"> <polygon class="st3" points="171.6,1587.3 1069.8,1587.3 1069.8,1583.9 620.7,1331.9 171.6,1583.9 " id="polygon20" style="fill:#dcdcdc"/> </g> <g id="g36" transform="translate(-263.17208,-885.18151)" style="fill:#ffffff"> <path class="st4" d="M 969.1,2010 H 272.3 c -38.1,0 -69,-30.9 -69,-69 v -466 c 0,-38.1 30.9,-69 69,-69 H 969 c 38.1,0 69,30.9 69,69 v 466.1 c 0,38 -30.8,68.9 -68.9,68.9 z" id="path24" style="fill:#ffffff"/> <path class="st5" d="M 957.3,1591 H 284.1 c -6,0 -10.9,-4.9 -10.9,-10.9 v -3.4 c 0,-6 4.9,-10.9 10.9,-10.9 h 673.2 c 6,0 10.9,4.9 10.9,10.9 v 3.4 c 0,6 -4.9,10.9 -10.9,10.9 z" id="path26" style="fill:#696969"/> <path class="st5" d="M 957.3,1662.9 H 284.1 c -6,0 -10.9,-4.9 -10.9,-10.9 v -3.4 c 0,-6 4.9,-10.9 10.9,-10.9 h 673.2 c 6,0 10.9,4.9 10.9,10.9 v 3.4 c 0,6.1 -4.9,10.9 -10.9,10.9 z" id="path28" style="fill:#696969"/> <path class="st6" d="M 957.3,1518.9 H 284.1 c -6,0 -10.9,-4.9 -10.9,-10.9 v -3.4 c 0,-6 4.9,-10.9 10.9,-10.9 h 673.2 c 6,0 10.9,4.9 10.9,10.9 v 3.4 c 0,6 -4.9,10.9 -10.9,10.9 z" id="path30" style="fill:#00bfff"/> <path class="st5" d="M 957.3,1734.9 H 284.1 c -6,0 -10.9,-4.9 -10.9,-10.9 v -3.4 c 0,-6 4.9,-10.9 10.9,-10.9 h 673.2 c 6,0 10.9,4.9 10.9,10.9 v 3.4 c 0,6 -4.9,10.9 -10.9,10.9 z" id="path32" style="fill:#696969"/> <path class="st5" d="M 957.3,1806.8 H 284.1 c -6,0 -10.9,-4.9 -10.9,-10.9 v -3.4 c 0,-6 4.9,-10.9 10.9,-10.9 h 673.2 c 6,0 10.9,4.9 10.9,10.9 v 3.4 c 0,6 -4.9,10.9 -10.9,10.9 z" id="path34" style="fill:#696969"/> </g> <g id="g44" transform="translate(-263.17208,-885.18151)"> <path class="st3" d="M 570.4,1843 171.6,1583.9 c -23.2,0 -42,18.8 -42,42 v 490 L 568,1844.3 c 0.8,-0.5 1.6,-0.9 2.4,-1.3 z" id="path38" style="fill:#dcdcdc"/> <path class="st3" d="m 1111.7,2115.9 v -490 c 0,-23.2 -18.8,-42 -42,-42 L 671,1843 c 0.8,0.5 1.6,0.9 2.3,1.3 z" id="path40" style="fill:#dcdcdc"/> </g> </g> <g id="g2495" transform="matrix(0.52771994,0,0,0.52771994,133.89006,-444.21444)"> <path class="st0" d="m 597.66797,1021.8549 c -5e-5,1.9 1.6,3.5 3.5,3.5 1.9,0 3.5,-1.6 3.5,-3.5 l -0.007,-261.27355 -6.98559,-0.005 z" id="path4" style="fill:#4b4b70"/> <g id="g8" transform="translate(223.86797,929.85492)"> <path class="st1" d="m 333.9,273.8 c -27.1,0 -40.1,-13.5 -46.2,-24.9 -6.5,-12.1 -6.6,-24.1 -6.6,-24.6 v -35.1 h 10.8 v 35.1 c 0,1.6 0.7,38.6 41.9,38.6 15.6,0 26.7,-6.9 33,-20.5 4.9,-10.6 4.9,-21.3 4.9,-21.4 V 110.5 h 10.8 v 110.6 c 0,0.5 -0.1,13.2 -5.9,25.9 -5.5,12.3 -17.5,26.8 -42.7,26.8 z" id="path6"/> </g> <polygon class="st1" points="281.1,163.2 310.3,212.4 281.1,204 " id="polygon10" transform="translate(223.86797,929.85492)"/> <g id="g14" transform="translate(223.86797,929.85492)"> <path class="st1" d="m 377.3,118.3 c -11.9,0 -21.5,-9.7 -21.5,-21.5 0,-11.9 9.7,-21.5 21.5,-21.5 11.9,0 21.5,9.7 21.5,21.5 0.1,11.8 -9.6,21.5 -21.5,21.5 z m 0,-33.6 c -6.6,0 -12.1,5.4 -12.1,12.1 0,6.6 5.4,12.1 12.1,12.1 6.7,0 12.1,-5.4 12.1,-12.1 0,-6.7 -5.4,-12.1 -12.1,-12.1 z" id="path12"/> </g> <path class="st0" d="m 592.46797,1068.4549 c -1,0 -2,-0.4 -2.7,-1.3 -1.2,-1.5 -1,-3.7 0.5,-4.9 l 16.7,-13.6 c 1.5,-1.2 3.7,-1 4.9,0.5 1.2,1.5 1,3.7 -0.5,4.9 l -16.7,13.6 c -0.6,0.5 -1.4,0.8 -2.2,0.8 z" id="path18"/> <path class="st0" d="m 592.16797,1050.1549 c -0.4,0 -0.8,-0.1 -1.2,-0.2 -1.8,-0.7 -2.8,-2.7 -2.1,-4.5 l 9,-24.8 c 0.7,-1.8 2.7,-2.8 4.5,-2.1 1.8,0.7 2.8,2.7 2.1,4.5 l -9,24.8 c -0.5,1.4 -1.8,2.3 -3.3,2.3 z" id="path22"/> <path class="st0" d="m 592.66797,1079.3549 c -1,0 -2,-0.4 -2.7,-1.3 -1.2,-1.5 -1,-3.7 0.5,-4.9 l 16.7,-13.6 c 1.5,-1.2 3.7,-1 4.9,0.5 1.2,1.5 1,3.7 -0.5,4.9 l -16.7,13.6 c -0.6,0.5 -1.4,0.8 -2.2,0.8 z" id="path26-9"/> <path class="st0" d="m 592.86797,1090.1549 c -1,0 -2,-0.4 -2.7,-1.3 -1.2,-1.5 -1,-3.7 0.5,-4.9 l 16.7,-13.6 c 1.5,-1.2 3.7,-1 4.9,0.5 1.2,1.5 1,3.7 -0.5,4.9 l -16.7,13.6 c -0.6,0.6 -1.4,0.8 -2.2,0.8 z" id="path30-2"/> <path class="st0" d="m 593.06797,1101.0549 c -1,0 -2,-0.4 -2.7,-1.3 -1.2,-1.5 -1,-3.7 0.5,-4.9 l 16.7,-13.6 c 1.5,-1.2 3.7,-1 4.9,0.5 1.2,1.5 1,3.7 -0.5,4.9 l -16.7,13.6 c -0.6,0.5 -1.4,0.8 -2.2,0.8 z" id="path34-4"/> <path class="st1" d="m 550.36797,1198.3549 c 0,-4.9 -6.2,-6.4 -6.2,-6.4 -27.8,-7.1 -28.4,-35.7 -28.4,-37.1 v -35.1 h -10.8 v 35.1 c 0,0.5 0.1,12.5 6.6,24.6 5.1,9.4 14.9,20.3 33.6,23.8 0,0 5.2,0 5.2,-4.9 z" id="path38-6"/> </g> <path style="fill:#ffffff;stroke:none;stroke-width:1px;stroke-linecap:butt;stroke-linejoin:miter;stroke-opacity:1" d="m 421.37453,183.75904 c 0,0 6.27224,3.01981 0.91343,7.35908 -5.3588,4.33927 15.28878,-1.39292 15.28878,-1.39292 l -0.0585,-7.01901 z" id="path3883"/> </g> <metadata id="metadata5158"> </metadata> </svg>