<?xml version='1.0' encoding='utf-8'?>
<svg xmlns="http://www.w3.org/2000/svg" version="1.1" width="600px" height="976px" viewBox="0 0 600 976"> <g id="layer1"> <g style="fill:rgb(4,71,74); fill-opacity:1.0; stroke-linejoin: miter"> <path d="M254.58281,49.42315Q107.356445,52.21347,4.0337524,154.13223Q-97.229614,258.49423,-99.036575,404.913Q-96.72754,551.25146,5.325241,655.4529Q108.96175,756.7054,256.37152,758.87036Q403.60693,756.2577,507.06158,654.4404Q608.45276,550.1764,610.4116,403.75616Q608.2564,257.4192,506.32855,153.11868Q402.82898,51.76487,255.42317,49.42189"/> </g> <g style="fill:rgb(255,255,255); fill-opacity:0.18039216; stroke-linejoin: miter"> <path d="M257.04053,80.55159Q123.65247,82.11002,25.83802,176.11836Q-68.10572,272.55695,-70.38112,407.6079Q-68.41675,542.48065,25.311607,639.2107Q120.18929,732.3192,256.32034,735.3028Q389.71756,734.00586,487.73187,640.1536Q581.86847,543.85944,584.3695,408.8056Q582.63074,273.93423,489.09467,177.06323Q394.41968,83.80435,258.2974,80.55402"/> </g> <g style="fill:rgb(36,30,30); fill-opacity:0.28235295; stroke-linejoin: miter"> <path d="M262.74597,178.56555Q166.1743,180.03624,92.27767,236.32906L92.27839,236.32906L117.04927,280.45172Q180.01878,229.69814,262.62555,228.57913L262.75336,228.57913Q318.021,229.52121,364.0137,251.91252L391.621,209.85452L391.62466,209.85452Q333.3087,179.66272,262.87622,178.56555 Z M400.439,214.62527L372.91953,256.49844L372.92307,256.49844Q401.35397,271.94156,426.09653,295.9141Q492.85446,364.43204,494.532,459.43155Q494.51022,461.55057,494.4561,463.65665L544.48016,463.2239L544.4853,463.2239Q544.5234,461.6675,544.5472,460.10513Q542.6125,343.99228,461.9546,261.045Q433.16846,233.10526,400.44278,214.62527 Z M84.34472,242.58345Q73.76943,251.20735,63.67437,260.99228Q-17.00657,343.86713,-18.971127,460.05157Q-18.910732,464.09442,-18.754879,468.09723L31.238682,467.66473L31.238773,467.66473Q31.09673,464.2121,31.042484,460.72394Q32.215717,365.64673,98.53197,296.86072Q103.82854,291.72174,109.27809,286.96942L109.27898,286.96942L84.34536,242.58345 Z M250.18286,284.7664L223.16216,336.59177L223.15858,336.59177Q201.11688,345.1656,182.85094,362.78717Q148.56511,397.69138,147.71404,446.54535Q148.19353,495.414,182.08266,530.54095Q217.31941,564.9108,265.77933,565.61444Q315.2094,564.90814,349.78812,531.23145Q384.03854,496.30054,384.84744,447.44687Q384.3265,398.57767,350.4011,363.47717Q325.34833,339.0858,293.6403,331.68826L293.636,331.68826L250.32477,284.9196L250.18286,284.7664 Z"/> </g> <g> <g style="fill:rgb(50,29,29); fill-opacity:1.0; stroke-linejoin: miter"> <path d="M248.5553,255.94182L191.32098,365.7165L339.16882,353.78888L248.69722,256.09503"/> </g> <g style="fill:rgb(255,170,0); fill-opacity:1.0; stroke-linejoin: miter"> <path d="M261.1184,149.74112Q164.54666,151.2118,90.65,207.50458L90.65072,207.50458L115.421616,251.62721Q178.39119,200.87367,260.99805,199.75475L261.12585,199.75471Q316.39355,200.69681,362.3863,223.08806L362.3863,223.08806L389.9936,181.03006L389.99725,181.03006Q331.6812,150.83821,261.24866,149.74115L261.1184,149.74112 Z"/> </g> <g style="fill:rgb(250,84,34); fill-opacity:1.0; stroke-linejoin: miter"> <path d="M398.81158,185.80084L371.2921,227.67393L371.29565,227.67393Q399.72656,243.11703,424.46912,267.08954Q491.2271,335.60745,492.90472,430.607Q492.88293,432.72604,492.8288,434.83212L542.8529,434.39935L542.8581,434.39935Q542.8961,432.843,542.9199,431.28064Q540.9851,315.16766,460.32727,232.2205Q431.54108,204.28076,398.81537,185.80084 Z"/> </g> <g style="fill:rgb(120,255,0); fill-opacity:1.0; stroke-linejoin: miter"> <path d="M82.717026,213.75894Q72.14173,222.38281,62.04665,232.16772Q-18.634365,315.04257,-20.598934,431.22696Q-20.538544,435.2698,-20.382679,439.2726L-20.382679,439.2726L29.610918,438.84006L29.611021,438.84006Q29.468977,435.38742,29.41472,431.89926Q30.587954,336.8221,96.904305,268.03625Q102.20088,262.89728,107.65042,258.14496L107.651306,258.14496L82.71766,213.75894 Z"/> </g> <g style="fill:rgb(0,0,0); fill-opacity:1.0; stroke-linejoin: miter"> <path d="M264.74756,299.65604Q216.10185,300.31436,181.22331,333.96262Q146.93748,368.86694,146.0864,417.72076Q146.56589,466.58936,180.45505,501.7163Q215.69183,536.0864,264.15186,536.79004Q313.58203,536.08374,348.1607,502.4067Q382.41113,467.4758,383.22003,418.62225Q382.6991,369.75314,348.77362,334.65262Q313.50134,300.31165,265.037,299.6564"/> </g> <g style="fill:rgb(36,30,30); fill-opacity:1.0; stroke-linejoin: miter"> <path d="M264.72455,329.4744Q228.29912,329.9695,202.19221,355.1658Q176.53328,381.3004,175.90465,417.86755Q176.27168,454.44568,201.6481,480.73685Q228.03906,506.46274,264.32483,506.97177Q301.33704,506.4205,327.20392,481.19113Q352.82196,455.0257,353.40173,418.459Q352.9867,381.88016,327.56836,355.61963Q301.13617,329.92752,264.84546,329.4745"/> </g> </g> <g> <g style="fill:rgb(18,255,187); fill-opacity:0.23137255; stroke-linejoin: miter"> <path d="M141.21785,580.0255Q175.39778,585.42834,169.62135,603.88574L169.26834,604.6468Q166.60556,611.5864,158.66211,611.64246Q149.25302,611.7088,132.43478,602.1169L141.21785,580.0255 Z M419.47882,541.1443L390.10425,591.31104L379.71384,557.4568L347.53098,565.8785L375.3436,672.0047L410.807,661.92664L400.596,626.24896L454.01923,650.46814L471.107,619.91016L469.64447,619.2271L426.978,599.05054L449.85468,556.34656L419.47882,541.1443 Z M121.74259,533.9051L80.76749,635.35504L113.05067,648.48914L120.44078,635.2154Q147.17126,680.6113,198.25226,680.2511Q203.63965,680.21313,209.29797,679.6662L209.03055,679.07263Q201.62572,663.8214,196.38828,645.2271Q194.40337,645.56445,192.22337,645.57983Q185.65184,645.62616,177.30713,642.74677Q218.69519,623.3749,199.3103,574.9049Q199.27106,560.2179,121.74259,533.9051 Z M320.7203,572.11835Q297.59625,572.2814,281.64124,594.5075Q258.30414,639.2371,298.62738,663.65424Q295.64426,669.1901,279.43134,683.9856Q277.66696,685.55743,281.13348,686.644Q292.15436,690.83105,301.58588,690.7646Q319.92734,690.63525,332.25824,674.41956Q339.2472,659.76807,333.8258,649.25134Q331.18347,639.8491,311.50064,628.9833Q307.20935,624.1394,307.96722,617.8934Q312.4039,606.0136,321.8319,605.94714Q325.40643,605.92194,329.69846,607.59485L347.41257,578.38763L345.88385,577.5721Q332.3893,572.0361,320.7203,572.11835 Z M239.32515,580.83514L218.93591,685.85376Q229.02444,691.53156,266.18134,691.45575L266.17032,690.8838L262.88138,581.5915L239.32515,580.83514 Z"/> </g> </g> <g style="fill:rgb(0,0,0); fill-opacity:0.05490196; stroke-linejoin: miter"> <path d="M255.0215,49.422493L254.58281,49.42315Q107.356445,52.21347,4.0337524,154.13223Q-97.229614,258.49423,-99.036575,404.913Q-96.72754,551.25146,5.325241,655.4529Q108.90365,756.6486,256.20627,758.8679L256.20706,758.8679L255.0215,49.422493 Z"/> </g> <g style="fill:rgb(255,255,255); fill-opacity:0.03137255; stroke-linejoin: miter"> <path d="M265.64243,340.86792Q234.35529,341.36603,212.10419,363.00583Q190.33823,385.60938,189.93016,416.31042Q190.30075,447.47147,211.99901,469.93396Q234.2204,491.62656,265.49405,492.17712Q296.78168,491.69287,319.04343,470.06085Q340.81946,447.46442,341.239,416.76337Q340.87994,385.60245,319.19183,363.13275Q296.98138,341.43256,265.70798,340.86795"/> </g> </g> </svg>